<svg width="140" height="26" viewBox="0 0 140 26" fill="none" xmlns="http://www.w3.org/2000/svg">
<path d="M5.21151 6.12158V25.9997H0V6.12158H5.21151Z" fill="white"/>
<path d="M17.6525 6.12148C17.6525 2.7407 14.8675 0 11.432 0C7.99625 0 5.21118 2.7407 5.21118 6.12148H17.6525Z" fill="#6EB974"/>
<path fill-rule="evenodd" clip-rule="evenodd" d="M22.8637 6.12134H0.0403678V6.12198H0V26.0001H5.21151V25.9997H17.6527V25.9998H22.8644V6.1217H22.8637V6.12134ZM17.6527 20.8712V11.25H5.21151V20.8711L17.6527 20.8712Z" fill="#3F6D5B"/>
<path d="M54.223 25.0843H47.4038L43.5071 19.7159L39.5129 25.0843H32.8235L40.0162 16.121L32.9372 7.14136H39.7563L43.5882 12.414L47.4361 7.14136H54.1418L47.0465 15.9771L54.223 25.0843Z" fill="black"/>
<path d="M68.446 20.4033V16.6645C67.6558 16.7283 66.8006 16.8188 65.8807 16.936C64.9605 17.0426 64.2624 17.1705 63.7862 17.3195C63.2015 17.5005 62.7524 17.767 62.4384 18.1184C62.1353 18.4593 61.9839 18.912 61.9839 19.4765C61.9839 19.8495 62.0162 20.1528 62.0813 20.3873C62.1462 20.6217 62.3085 20.8452 62.5684 21.0583C62.8172 21.2714 63.1149 21.4311 63.4614 21.5376C63.8076 21.6335 64.3489 21.6815 65.0849 21.6815C65.6696 21.6815 66.2595 21.5643 66.8548 21.3299C67.461 21.0957 67.9912 20.7867 68.446 20.4033ZM68.446 23.1835C68.132 23.4177 67.7424 23.6999 67.277 24.0302C66.8114 24.3605 66.3732 24.6214 65.9618 24.8131C65.388 25.0687 64.7926 25.2551 64.1758 25.3723C63.5588 25.5002 62.8823 25.564 62.1462 25.564C60.4142 25.564 58.9639 25.0369 57.7949 23.9822C56.6257 22.9277 56.0413 21.5803 56.0413 19.94C56.0413 18.6297 56.3389 17.5592 56.9343 16.7283C57.5296 15.8976 58.374 15.2423 59.4672 14.763C60.5496 14.2837 61.8919 13.943 63.4937 13.7406C65.0957 13.5382 66.7574 13.3889 68.4783 13.2931V13.1972C68.4783 12.2066 68.0671 11.5249 67.2444 11.1521C66.4218 10.7686 65.2094 10.5769 63.6074 10.5769C62.6441 10.5769 61.6157 10.7473 60.5225 11.0883C59.4292 11.4183 58.6445 11.6741 58.1683 11.8552H57.6324V7.52515C58.2494 7.36545 59.2507 7.17907 60.6362 6.966C62.0325 6.74225 63.4288 6.63037 64.8252 6.63037C68.1483 6.63037 70.5459 7.13637 72.0179 8.14836C73.5008 9.14968 74.2424 10.726 74.2424 12.8778V25.0847H68.446V23.1835Z" fill="black"/>
<path d="M95.3498 25.0843H78.2205V21.3936L87.8323 11.3435H78.6101V7.14136H95.1713V10.7683L85.7055 20.8024H95.3498V25.0843Z" fill="black"/>
<path d="M117.772 25.0845H111.895V16.185C111.895 15.4606 111.857 14.7417 111.781 14.028C111.705 13.3036 111.575 12.7711 111.391 12.4302C111.175 12.0361 110.856 11.7485 110.434 11.5674C110.022 11.3864 109.443 11.2958 108.696 11.2958C108.166 11.2958 107.625 11.381 107.072 11.5514C106.531 11.7218 105.941 11.9936 105.303 12.3663V25.0845H99.4578V7.14156H105.303V9.12284C106.342 8.32393 107.338 7.71139 108.29 7.28546C109.254 6.85931 110.32 6.64624 111.489 6.64624C113.459 6.64624 114.996 7.21073 116.1 8.33993C117.215 9.46892 117.772 11.1573 117.772 13.4048V25.0845Z" fill="black"/>
<path d="M134.203 20.4033V16.6645C133.413 16.7283 132.558 16.8188 131.638 16.936C130.718 17.0426 130.02 17.1705 129.544 17.3195C128.959 17.5005 128.51 17.767 128.196 18.1184C127.893 18.4593 127.741 18.912 127.741 19.4765C127.741 19.8495 127.774 20.1528 127.839 20.3873C127.904 20.6217 128.066 20.8452 128.326 21.0583C128.575 21.2714 128.872 21.4311 129.219 21.5376C129.565 21.6335 130.106 21.6815 130.842 21.6815C131.427 21.6815 132.017 21.5643 132.612 21.3299C133.218 21.0957 133.749 20.7867 134.203 20.4033ZM134.203 23.1835C133.89 23.4177 133.5 23.6999 133.034 24.0302C132.569 24.3605 132.131 24.6214 131.719 24.8131C131.146 25.0687 130.55 25.2551 129.933 25.3723C129.316 25.5002 128.64 25.564 127.904 25.564C126.172 25.564 124.721 25.0369 123.552 23.9822C122.383 22.9277 121.799 21.5803 121.799 19.94C121.799 18.6297 122.096 17.5592 122.692 16.7283C123.287 15.8976 124.131 15.2423 125.225 14.763C126.307 14.2837 127.649 13.943 129.251 13.7406C130.853 13.5382 132.515 13.3889 134.236 13.2931V13.1972C134.236 12.2066 133.825 11.5249 133.002 11.1521C132.179 10.7686 130.967 10.5769 129.365 10.5769C128.402 10.5769 127.373 10.7473 126.28 11.0883C125.187 11.4183 124.402 11.6741 123.926 11.8552H123.39V7.52515C124.007 7.36545 125.008 7.17907 126.394 6.966C127.79 6.74225 129.186 6.63037 130.583 6.63037C133.906 6.63037 136.303 7.13637 137.775 8.14836C139.258 9.14968 140 10.726 140 12.8778V25.0847H134.203V23.1835Z" fill="black"/>
</svg>
